<?xml version="1.0" standalone="no"?>
<!DOCTYPE svg PUBLIC "-//W3C//DTD SVG 20010904//EN"
 "http://www.w3.org/TR/2001/REC-SVG-20010904/DTD/svg10.dtd">
<svg version="1.0" xmlns="http://www.w3.org/2000/svg"
 width="700.000000pt" height="700.000000pt" viewBox="0 0 700.000000 700.000000"
 preserveAspectRatio="xMidYMid meet">
<metadata>
Created by potrace 1.14, written by Peter Selinger 2001-2017
</metadata>
<g transform="translate(0.000000,700.000000) scale(0.100000,-0.100000)"
fill="#000000" stroke="none">
<path d="M3050 5715 l0 -455 450 0 450 0 0 455 0 455 -450 0 -450 0 0 -455z"/>
<path d="M1398 5183 c-19 -32 -121 -205 -226 -385 -106 -179 -192 -330 -192
-335 1 -7 725 -434 760 -448 12 -4 69 86 243 381 125 213 226 388 224 389 -1
1 -166 98 -367 215 -201 117 -375 220 -387 227 -20 13 -23 11 -55 -44z"/>
<path d="M5197 4997 c-213 -122 -386 -227 -385 -233 2 -6 102 -182 223 -392
l219 -381 46 25 c25 14 199 114 388 222 251 144 342 201 339 213 -4 15 -423
747 -436 761 -4 4 -181 -92 -394 -215z"/>
<path d="M3050 3500 l0 -450 450 0 450 0 0 450 0 450 -450 0 -450 0 0 -450z"/>
<path d="M1360 2799 c-212 -120 -386 -223 -388 -228 -3 -9 411 -746 432 -768
8 -9 105 42 394 207 211 119 386 220 389 223 4 5 -417 758 -436 779 -3 3 -179
-92 -391 -213z"/>
<path d="M5236 2978 c-39 -62 -436 -751 -434 -754 2 -1 167 -97 368 -214 201
-116 375 -218 387 -226 21 -13 27 -5 243 366 121 209 223 386 225 393 3 7
-139 95 -379 235 -211 122 -386 222 -389 222 -4 0 -13 -10 -21 -22z"/>
<path d="M3040 1292 l0 -449 446 -7 c246 -4 448 -6 449 -4 1 2 4 206 6 453 l4
450 -452 3 -453 2 0 -448z"/>
</g>
</svg>
